<svg viewBox="0 0 21 20" stroke='none' xmlns="http://www.w3.org/2000/svg">
<path d="M8.49984 15.55L6.72984 17.27C6.26571 17.7341 5.63621 17.9948 4.97984 17.9948C4.32346 17.9948 3.69397 17.7341 3.22984 17.27C2.76571 16.8058 2.50496 16.1763 2.50496 15.52C2.50496 14.8636 2.76571 14.2341 3.22984 13.77L7.76984 9.21997C8.21545 8.77291 8.81586 8.51425 9.44685 8.4975C10.0778 8.48075 10.6911 8.70719 11.1598 9.12997L11.2798 9.22997C11.4695 9.41562 11.7251 9.51834 11.9904 9.51553C12.2558 9.51272 12.5092 9.4046 12.6948 9.21497C12.8805 9.02534 12.9832 8.76973 12.9804 8.50437C12.9776 8.239 12.8695 7.98562 12.6798 7.79997C12.6231 7.72724 12.563 7.65717 12.4998 7.58997C11.6462 6.84729 10.5422 6.45682 9.4114 6.49767C8.28064 6.53852 7.20767 7.00763 6.40984 7.80997L1.80984 12.36C1.02819 13.2108 0.605457 14.3306 0.629911 15.4857C0.654365 16.6408 1.12412 17.7418 1.94107 18.5587C2.75802 19.3757 3.859 19.8454 5.01408 19.8699C6.16917 19.8944 7.28904 19.4716 8.13984 18.69L9.86984 17C10.0407 16.8136 10.1346 16.5695 10.1326 16.3167C10.1307 16.0639 10.0332 15.8212 9.85955 15.6375C9.68594 15.4537 9.44917 15.3426 9.1969 15.3263C8.94463 15.3101 8.69557 15.39 8.49984 15.55ZM19.1898 1.30997C18.3486 0.47398 17.2108 0.00476074 16.0248 0.00476074C14.8389 0.00476074 13.7011 0.47398 12.8598 1.30997L11.1298 2.99997C10.959 3.18632 10.8651 3.43045 10.867 3.68324C10.8689 3.93603 10.9665 4.17871 11.1401 4.36246C11.3137 4.54621 11.5505 4.65739 11.8028 4.67362C12.055 4.68986 12.3041 4.60995 12.4998 4.44997L14.2298 2.72997C14.694 2.26584 15.3235 2.0051 15.9798 2.0051C16.6362 2.0051 17.2657 2.26584 17.7298 2.72997C18.194 3.1941 18.4547 3.8236 18.4547 4.47997C18.4547 5.13635 18.194 5.76584 17.7298 6.22997L13.1898 10.78C12.7442 11.227 12.1438 11.4857 11.5128 11.5024C10.8818 11.5192 10.2685 11.2928 9.79984 10.87L9.67984 10.77C9.49021 10.5843 9.23459 10.4816 8.96923 10.4844C8.70387 10.4872 8.45049 10.5953 8.26484 10.785C8.07919 10.9746 7.97647 11.2302 7.97928 11.4956C7.98209 11.7609 8.09021 12.0143 8.27984 12.2C8.35282 12.2739 8.42959 12.344 8.50984 12.41C9.36451 13.1504 10.4681 13.5394 11.5981 13.4986C12.7282 13.4578 13.8008 12.9902 14.5998 12.19L19.1498 7.63997C19.9912 6.80405 20.4676 5.6692 20.4751 4.48322C20.4826 3.29724 20.0205 2.15646 19.1898 1.30997Z"/>
</svg>
